# xmcd
#
# Track frame offsets:
#	183
#	19908
#	35358
#	53483
#	74395
#	94633
#	109983
#	129558
#	150220
#	170083
#
# Disc length: 2549 seconds
#
# Revision: 1
# Processed by: cddbd v1.5.1PL0 Copyright (c) Steve Scherf et al.
# Submitted via: audiograbber 1.83.01
#
DISCID=7a09f30a
DTITLE=Renato Zero - Viaggio a Zerolandia
DYEAR=1979
DGENRE=Soul
TTITLE0=La Favola Mia
TTITLE1=Grattacieli di Sale
TTITLE2=Io Uguale Io
TTITLE3=Triangolo
TTITLE4=Arrendermi Mai
TTITLE5=La tua Idea
TTITLE6=Baratto
TTITLE7=Il Carrozone
TTITLE8=Sesso O Esse
TTITLE9=Uomo No
EXTD=
EXTT0=
EXTT1=
EXTT2=
EXTT3=
EXTT4=
EXTT5=
EXTT6=
EXTT7=
EXTT8=
EXTT9=
PLAYORDER=
